<svg xmlns="http://www.w3.org/2000/svg" viewBox="0 0 1800 500">
  <defs/>
  <switch>
    <g>
      <path d="M625.732 202.802c-10.944 0-15.467 5.931-18.895 14.847l-51.213 131.693c-.064.153-.04.322.048.459.097.129.249.209.41.209h20.11c.209 0 .386-.121.459-.314l16.094-42.715h66.172l16.457 42.715c.072.193.258.314.459.314h20.673c.161 0 .314-.08.41-.209.089-.137.113-.306.048-.459l-51.213-131.701c-4.23-10.678-9.839-14.839-20.019-14.839zm-25.727 84.754l23.578-62.278c.668-1.545 1.4-1.746 1.964-1.746.934 0 1.392.41 1.964 1.73l23.957 62.294h-51.463zM737.806 330.585c-3.372 0-5.464-2.165-5.464-5.649V204.227c0-.274-.217-.491-.491-.491h-19.563c-.274 0-.491.217-.491.491v124.805c0 12.94 8.039 20.979 20.979 20.979h74.735c.274 0 .491-.217.491-.491v-18.444c0-.274-.217-.491-.491-.491h-69.705zM881.771 221.295c22.717 0 41.129 12.699 49.265 33.959.072.193.258.314.459.314h20.858c.153 0 .298-.072.394-.193s.121-.282.081-.426c-9.246-33.235-35.81-53.072-71.057-53.072-44.155 0-74.992 30.837-74.992 75s30.837 75 74.992 75c35.303 0 61.199-19.209 71.057-52.701.04-.145.016-.306-.081-.435-.089-.121-.241-.193-.394-.193h-20.858c-.201 0-.386.121-.459.314-8.514 21.655-26.009 33.589-49.265 33.589-31.835 0-54.078-22.854-54.078-55.574s22.243-55.582 54.078-55.582zM1081.874 203.736c-.274 0-.491.217-.491.491v59.485h-84.504v-59.485c0-.274-.217-.491-.491-.491h-19.555c-.274 0-.491.217-.491.491V349.52c0 .274.217.491.491.491h19.555c.274 0 .491-.217.491-.491v-66.382h84.504v66.382c0 .274.217.491.491.491h19.555c.274 0 .491-.217.491-.491V204.227c0-.274-.217-.491-.491-.491h-19.555zM1155.466 330.585c-3.372 0-5.472-2.092-5.472-5.464v-40.494h75.684c.274 0 .491-.217.491-.491v-17.881c0-.274-.217-.491-.491-.491h-75.684v-37.138c0-3.267 2.205-5.472 5.472-5.472h73.56c.274 0 .491-.217.491-.491v-18.436c0-.274-.217-.491-.491-.491h-78.589c-12.747 0-20.979 8.232-20.979 20.979v104.316c0 12.94 8.039 20.979 20.979 20.979h79.523c.274 0 .491-.217.491-.491v-18.444c0-.274-.217-.491-.491-.491h-74.494zM1401.064 202.802c-12.264 0-19.048 5.842-25.035 21.518l-33.155 70.792c-.942 2.068-1.964 2.881-3.645 2.881-1.537 0-2.535-.837-3.46-2.889l-33.332-70.751c-6.253-15.917-12.763-21.551-24.858-21.551-14.413 0-21.719 8.377-21.719 24.898v121.82c0 .274.217.491.491.491h19.555c.274 0 .491-.217.491-.491V229.004c0-2.229 1.167-3.613 3.05-3.613 1.561 0 2.551.885 3.645 3.259l35.569 75.805c4.523 10.791 10.478 15.193 20.569 15.193 10.228 0 16.239-4.402 20.746-15.185l35.577-75.813c1.094-2.374 2.084-3.259 3.645-3.259 1.883 0 3.05 1.384 3.05 3.613V349.52c0 .274.217.491.491.491h19.555c.274 0 .491-.217.491-.491V227.701c-.001-16.521-7.308-24.899-21.721-24.899zM1452.277 203.736c-.274 0-.491.217-.491.491V349.52c0 .274.217.491.491.491h19.555c.274 0 .491-.217.491-.491V204.227c0-.274-.217-.491-.491-.491h-19.555zM1573.468 266.698l-27.94-2.052c-20.4-1.223-24.689-11.749-24.689-20.368 0-14.501 12.698-23.168 33.967-23.168 19.844 0 32.471 7.226 37.524 21.47.072.193.257.322.467.322h21.052c.153 0 .298-.064.386-.185.097-.121.129-.274.097-.418-6.011-25.317-28.125-40.421-59.155-40.421-33.967 0-55.059 16.457-55.059 42.956 0 22.991 16.111 37.87 43.109 39.794l28.31 2.052c16.73.998 24.866 7.661 24.866 20.368 0 23.265-26.226 25.775-37.5 25.775-22.943 0-36.438-9.021-41.242-27.57-.056-.225-.25-.37-.475-.37h-20.858c-.145 0-.29.064-.378.177-.097.113-.137.266-.105.41 5.915 30.797 27.127 46.408 63.058 46.408 35.376 0 58.23-18.034 58.23-45.95 0-22.943-15.918-37.243-43.665-39.23zM1749.172 203.736h-123.976c-.274 0-.491.217-.491.491v18.436c0 .274.217.491.491.491h51.72V349.52c0 .274.217.491.491.491h19.555c.274 0 .491-.217.491-.491V223.154h51.72c.274 0 .491-.217.491-.491v-18.436c-.001-.274-.218-.491-.492-.491z"/>
      <g>
        <path d="M268.534 262.417c-13.807 0-25 11.193-25 25s11.193 25 25 25c13.808 0 25.001-11.193 25.001-25s-11.193-25-25.001-25z"/>
        <path d="M469.502 324.144c-21.055-36.792-107.47-186.465-128.426-222.428C321.087 67.398 297.062 50 268.535 50s-52.552 17.398-72.541 51.716C175.038 137.679 88.623 287.352 67.568 324.144c-19.617 34.284-22.498 64.083-8.569 88.572 15.072 26.519 44.133 39.613 81.77 36.944 82.093-5.88 83.916-5.921 127.767-6.551 43.85.63 45.673.671 127.767 6.551 37.637 2.67 66.698-10.424 81.77-36.944 13.927-24.489 11.046-54.288-8.571-88.572zM268.529 131.701c-29.727 0-57.529 8.385-81.182 22.897 10.986-18.99 19.96-34.556 25.102-43.296 16.696-28.383 34.41-42.253 56.086-42.253 21.676 0 39.39 13.87 56.086 42.253 5.142 8.741 16.576 28.784 25.102 43.296-23.653-14.513-51.467-22.897-81.194-22.897zm.006 19.052c75.473 0 136.662 61.186 136.662 136.664s-61.189 136.664-136.662 136.664-136.662-61.186-136.662-136.664 61.189-136.664 136.662-136.664zM139.411 430.656c-30.394 2.191-52.444-7.291-63.858-27.359-10.508-18.477-7.711-41.272 8.549-69.695 5.687-9.938 26.313-45.761 28.811-50.096-1.689 62.078 33.383 116.483 85.727 142.998-13.899.905-32.145 2.211-59.229 4.152zm322.106-27.359c-11.414 20.068-33.464 29.55-63.858 27.359-27.084-1.94-45.329-3.247-59.229-4.152 52.344-26.515 87.416-80.919 85.727-142.998 2.498 4.335 23.125 40.158 28.811 50.096 16.26 28.423 19.057 51.218 8.549 69.695z"/>
      </g>
    </g>
  </switch>
</svg>
