<svg xmlns="http://www.w3.org/2000/svg" viewBox="0 0 624 624">
  <defs/>
  <switch>
    <g>
      <path fill="#F7DFA1" d="M311.999 322.155c-15.74 0-28.5 12.76-28.5 28.5 0 15.741 12.76 28.5 28.5 28.5 15.741 0 28.501-12.76 28.501-28.5s-12.76-28.5-28.501-28.5z"/>
      <linearGradient id="a" x1="477.8411" x2="228.5318" y1="164.0903" y2="595.9067" gradientUnits="userSpaceOnUse">
        <stop offset="0" stop-color="#ffeaae"/>
        <stop offset="1" stop-color="#e7ca87"/>
      </linearGradient>
      <path fill="url(#a)" d="M541.103 392.524c-24.003-41.943-122.516-212.57-146.406-253.568C371.909 99.834 344.521 80 312 80s-59.909 19.834-82.697 58.956C205.413 179.954 106.9 350.581 82.897 392.524c-22.363 39.084-25.648 73.054-9.769 100.972 17.182 30.232 50.312 45.159 93.218 42.116 93.587-6.703 95.665-6.75 145.654-7.468 49.989.718 52.068.765 145.654 7.468 42.906 3.043 76.036-11.884 93.218-42.116 15.878-27.918 12.594-61.888-9.769-100.972zm-229.11-219.385c-33.888 0-65.582 9.558-92.547 26.102 12.525-21.648 22.755-39.393 28.616-49.358 19.033-32.357 39.227-48.169 63.938-48.169 24.711 0 44.905 15.812 63.938 48.169 5.862 9.965 18.897 32.814 28.616 49.358-26.965-16.544-58.673-26.102-92.561-26.102zm.007 21.72c86.039 0 155.794 69.752 155.794 155.797S398.039 506.453 312 506.453s-155.794-69.752-155.794-155.797S225.961 194.859 312 194.859zM164.799 513.947c-34.649 2.498-59.786-8.312-72.798-31.189-11.98-21.063-8.79-47.05 9.746-79.452 6.483-11.329 29.997-52.167 32.845-57.109-1.926 70.769 38.057 132.791 97.729 163.017-15.847 1.032-36.647 2.522-67.522 4.733zm367.2-31.188c-13.012 22.877-38.149 33.687-72.798 31.189-30.875-2.212-51.676-3.701-67.521-4.733 59.672-30.227 99.655-92.248 97.729-163.017 2.848 4.941 26.362 45.78 32.845 57.109 18.536 32.401 21.725 58.388 9.745 79.452z"/>
    </g>
  </switch>
</svg>
