<?xml version="1.0" encoding="UTF-8" standalone="no"?>
<svg
   xmlns:dc="http://purl.org/dc/elements/1.1/"
   xmlns:cc="http://creativecommons.org/ns#"
   xmlns:rdf="http://www.w3.org/1999/02/22-rdf-syntax-ns#"
   xmlns:svg="http://www.w3.org/2000/svg"
   xmlns="http://www.w3.org/2000/svg"
   xmlns:sodipodi="http://sodipodi.sourceforge.net/DTD/sodipodi-0.dtd"
   xmlns:inkscape="http://www.inkscape.org/namespaces/inkscape"
   width="755.90552"
   height="755.90552"
   viewBox="0 0 200 200"
   version="1.1"
   id="svg8"
   inkscape:version="1.0.1 (3bc2e813f5, 2020-09-07)"
   sodipodi:docname="withdrawal.svg">
  <defs
     id="defs2" />
  <sodipodi:namedview
     id="base"
     pagecolor="#000000"
     bordercolor="#666666"
     borderopacity="1.0"
     inkscape:pageopacity="0"
     inkscape:pageshadow="2"
     inkscape:zoom="0.7"
     inkscape:cx="151.11146"
     inkscape:cy="403.17716"
     inkscape:document-units="mm"
     inkscape:current-layer="layer1"
     inkscape:document-rotation="0"
     showgrid="false"
     inkscape:snap-page="false"
     inkscape:window-width="1879"
     inkscape:window-height="1023"
     inkscape:window-x="41"
     inkscape:window-y="341"
     inkscape:window-maximized="1"
     units="px" />
  <metadata
     id="metadata5">
    <rdf:RDF>
      <cc:Work
         rdf:about="">
        <dc:format>image/svg+xml</dc:format>
        <dc:type
           rdf:resource="http://purl.org/dc/dcmitype/StillImage" />
        <dc:title></dc:title>
      </cc:Work>
    </rdf:RDF>
  </metadata>
  <g
     inkscape:label="Layer 1"
     inkscape:groupmode="layer"
     id="layer1">
    <rect
       style="opacity:0.732632;fill:none;fill-opacity:0.999412;stroke:#dec274;stroke-width:2.7;stroke-linecap:square;stroke-linejoin:round;stroke-miterlimit:4.4000001;stroke-opacity:1;stroke-dasharray:none"
       id="rect859"
       width="135.64668"
       height="135.64668"
       x="-67.823334"
       y="73.598015"
       rx="36.284782"
       ry="36.284782"
       transform="rotate(-45)" />
    <path
       id="path861-3"
       style="opacity:0.732632;fill:none;fill-opacity:0.999412;stroke:#ffffff;stroke-width:2;stroke-linecap:square;stroke-linejoin:round;stroke-miterlimit:4.4000001;stroke-dasharray:none;stroke-opacity:1"
       d="m 74.209686,99.152523 a 25.09314,25.09314 0 0 0 -1.949198,9.693547 25.09314,25.09314 0 0 0 25.093404,25.09342 25.09314,25.09314 0 0 0 25.093458,-25.09342 25.09314,25.09314 0 0 0 -1.83419,-9.413073 A 25.09314,25.09314 0 0 1 97.468925,114.83286 25.09314,25.09314 0 0 1 74.209686,99.152523 Z M 122.44704,89.749169 A 25.09314,25.09314 0 0 1 97.353892,114.84231 25.09314,25.09314 0 0 1 72.260769,89.749169 25.09314,25.09314 0 0 1 97.353892,64.656026 25.09314,25.09314 0 0 1 122.44704,89.749169 Z" />
    <path
       fill="currentColor"
       d="m 84.136336,91.08211 -1.481397,-1.481653 c -0.627258,-0.627366 -0.627258,-1.641831 0,-2.262523 L 95.620502,74.363463 c 0.627258,-0.627367 1.641548,-0.627367 2.262135,0 L 110.8482,87.33126 c 0.62726,0.627366 0.62726,1.641831 0,2.262523 l -1.4814,1.481653 c -0.63393,0.63404 -1.66824,0.620691 -2.28882,-0.0267 l -7.653891,-8.03563 V 102.1945 c 0,0.88766 -0.714006,1.60178 -1.60151,1.60178 h -2.135348 c -0.887503,0 -1.60151,-0.71412 -1.60151,-1.60178 V 83.01311 l -7.660559,8.042302 c -0.620585,0.654064 -1.654894,0.667413 -2.288826,0.0267 z"
       id="path982"
       style="fill:#ffffff;stroke:#ffffff;stroke-width:0.264582;stroke-opacity:1;fill-opacity:1" />
  </g>
</svg>
