<svg xmlns="http://www.w3.org/2000/svg" viewBox="0 0 1032 768">
  <defs/>
  <switch>
    <g>
      <g fill="#E7CA87">
        <path d="M120.151 593.373c-8.222 0-11.62 4.456-14.196 11.154l-38.475 98.94c-.048.115-.03.242.036.345.073.097.187.157.308.157h15.108c.157 0 .29-.091.345-.236l12.092-32.091h49.715l12.364 32.091c.054.145.193.236.345.236h15.532c.121 0 .236-.06.308-.157.067-.103.085-.23.036-.345l-38.475-98.945c-3.181-8.023-7.395-11.149-15.043-11.149zm-19.328 63.675l17.714-46.788c.502-1.161 1.052-1.312 1.475-1.312.701 0 1.046.308 1.475 1.3l17.998 46.8h-38.662zM204.351 689.375c-2.533 0-4.105-1.626-4.105-4.244v-90.687c0-.206-.163-.369-.369-.369H185.18c-.206 0-.369.163-.369.369v93.764c0 9.722 6.04 15.761 15.761 15.761h56.147c.206 0 .369-.163.369-.369v-13.857c0-.206-.163-.369-.369-.369h-52.368zM312.511 607.267c17.067 0 30.9 9.54 37.012 25.513.054.145.193.236.345.236h15.671c.115 0 .224-.054.296-.145s.091-.212.06-.32c-6.947-24.969-26.904-39.872-53.384-39.872-33.173 0-56.341 23.167-56.341 56.347s23.167 56.347 56.341 56.347c26.523 0 45.978-14.431 53.384-39.594.03-.109.012-.23-.06-.326-.066-.091-.181-.145-.296-.145h-15.671c-.151 0-.29.091-.345.236-6.396 16.269-19.54 25.235-37.012 25.235-23.917 0-40.628-17.17-40.628-41.752s16.71-41.76 40.628-41.76zM462.845 594.075c-.206 0-.369.163-.369.369v44.691H398.99v-44.691c0-.206-.163-.369-.369-.369H383.93c-.206 0-.369.163-.369.369V703.6c0 .206.163.369.369.369h14.691c.206 0 .369-.163.369-.369v-49.872h63.487V703.6c0 .206.163.369.369.369h14.691c.206 0 .369-.163.369-.369V594.443c0-.206-.163-.369-.369-.369h-14.692zM518.134 689.375c-2.533 0-4.111-1.572-4.111-4.105v-30.422h56.861c.206 0 .369-.163.369-.369v-13.434c0-.206-.163-.369-.369-.369h-56.861v-27.901c0-2.455 1.657-4.111 4.111-4.111h55.265c.206 0 .369-.163.369-.369v-13.851c0-.206-.163-.369-.369-.369h-59.043c-9.577 0-15.761 6.185-15.761 15.761v78.372c0 9.722 6.04 15.761 15.761 15.761H574.1c.206 0 .369-.163.369-.369v-13.857c0-.206-.163-.369-.369-.369h-55.966zM702.649 593.373c-9.214 0-14.31 4.389-18.808 16.166l-24.909 53.185c-.707 1.554-1.475 2.164-2.739 2.164-1.155 0-1.904-.629-2.6-2.17l-25.042-53.155c-4.698-11.959-9.589-16.191-18.675-16.191-10.828 0-16.318 6.294-16.318 18.706V703.6c0 .206.163.369.369.369h14.691c.206 0 .369-.163.369-.369v-90.542c0-1.675.877-2.715 2.291-2.715 1.173 0 1.917.665 2.739 2.449l26.722 56.951c3.398 8.107 7.872 11.414 15.453 11.414 7.684 0 12.2-3.307 15.586-11.408l26.728-56.957c.822-1.784 1.566-2.449 2.739-2.449 1.415 0 2.291 1.04 2.291 2.715V703.6c0 .206.163.369.369.369h14.691c.206 0 .369-.163.369-.369v-91.521c.002-12.412-5.488-18.706-16.316-18.706zM741.124 594.075c-.206 0-.369.163-.369.369V703.6c0 .206.163.369.369.369h14.691c.206 0 .369-.163.369-.369V594.443c0-.206-.163-.369-.369-.369h-14.691zM832.174 641.377l-20.991-1.542c-15.326-.919-18.549-8.827-18.549-15.302 0-10.895 9.54-17.406 25.519-17.406 14.909 0 24.395 5.429 28.192 16.13.054.145.193.242.351.242h15.816c.115 0 .224-.048.29-.139.073-.091.097-.206.073-.314-4.516-19.02-21.13-30.368-44.443-30.368-25.519 0-41.365 12.364-41.365 32.272 0 17.273 12.104 28.451 32.387 29.896l21.269 1.542c12.569.75 18.682 5.756 18.682 15.302 0 17.478-19.703 19.365-28.173 19.365-17.237 0-27.375-6.777-30.985-20.713-.042-.169-.187-.278-.357-.278h-15.671c-.109 0-.218.048-.284.133-.073.085-.103.2-.079.308 4.444 23.137 20.38 34.866 47.375 34.866 26.577 0 43.747-13.549 43.747-34.521.001-17.236-11.958-27.98-32.804-29.473zM964.178 594.075h-93.142c-.206 0-.369.163-.369.369v13.851c0 .206.163.369.369.369h38.856V703.6c0 .206.163.369.369.369h14.691c.206 0 .369-.163.369-.369v-94.937h38.856c.206 0 .369-.163.369-.369v-13.851c.001-.205-.162-.368-.368-.368z"/>
      </g>
      <path fill="#F7DFA1" d="M515.999 300.606c-15.559 0-28.173 12.614-28.173 28.174 0 15.56 12.614 28.174 28.173 28.174 15.56 0 28.174-12.614 28.174-28.174.001-15.56-12.613-28.174-28.174-28.174z"/>
      <linearGradient id="a" x1="679.9407" x2="433.4883" y1="144.3522" y2="571.2203" gradientUnits="userSpaceOnUse">
        <stop offset="0" stop-color="#ffeaae"/>
        <stop offset="1" stop-color="#e7ca87"/>
      </linearGradient>
      <path fill="url(#a)" d="M742.477 370.168c-23.728-41.463-121.112-210.134-144.728-250.662C575.223 80.832 548.148 61.225 516 61.225s-59.223 19.607-81.749 58.281c-23.616 40.528-121 209.199-144.728 250.662-22.107 38.636-25.354 72.217-9.657 99.815 16.985 29.886 49.735 44.642 92.15 41.633 92.514-6.626 94.568-6.673 143.985-7.382 49.417.71 51.471.756 143.985 7.382 42.414 3.008 75.165-11.747 92.15-41.633 15.695-27.597 12.448-61.179-9.659-99.815zM515.993 153.297c-33.5 0-64.831 9.449-91.487 25.803 12.381-21.4 22.494-38.942 28.288-48.792C471.61 98.322 491.572 82.691 516 82.691c24.428 0 44.39 15.631 63.205 47.617 5.794 9.85 18.68 32.438 28.289 48.792-26.656-16.354-58.001-25.803-91.501-25.803zm.007 21.471c85.053 0 154.009 68.953 154.009 154.012S601.053 482.791 516 482.791 361.991 413.839 361.991 328.78 430.947 174.768 516 174.768zM370.486 490.2c-34.252 2.469-59.101-8.217-71.964-30.831-11.842-20.822-8.69-46.511 9.634-78.542 6.408-11.199 29.653-51.57 32.468-56.455-1.904 69.958 37.621 131.269 96.609 161.149-15.664 1.021-36.226 2.493-66.747 4.679zm362.992-30.831c-12.863 22.615-37.712 33.301-71.964 30.831-30.522-2.186-51.083-3.659-66.748-4.679 58.988-29.88 98.513-91.191 96.609-161.149 2.815 4.885 26.06 45.255 32.468 56.455 18.325 32.031 21.477 57.72 9.635 78.542z"/>
    </g>
  </switch>
</svg>
